<svg width="47" height="48" viewBox="0 0 47 48" fill="none" xmlns="http://www.w3.org/2000/svg">
<g id="Google" clip-path="url(#clip0_0_375)">
<path id="Fill 1" fill-rule="evenodd" clip-rule="evenodd" d="M9.82726 24C9.82726 22.4757 10.0804 21.0144 10.5323 19.6437L2.62344 13.6042C1.08205 16.7338 0.213623 20.2602 0.213623 24C0.213623 27.7365 1.08099 31.2608 2.62024 34.3882L10.5248 28.337C10.0772 26.9728 9.82726 25.5168 9.82726 24Z" fill="#FBBC05"/>
<path id="Fill 2" fill-rule="evenodd" clip-rule="evenodd" d="M23.7137 10.1333C27.025 10.1333 30.0159 11.3067 32.3659 13.2267L39.2023 6.39999C35.0364 2.77333 29.6955 0.533325 23.7137 0.533325C14.4269 0.533325 6.44543 5.84426 2.62347 13.6043L10.5323 19.6437C12.3546 14.112 17.5492 10.1333 23.7137 10.1333Z" fill="#EA4335"/>
<path id="Fill 3" fill-rule="evenodd" clip-rule="evenodd" d="M23.7137 37.8667C17.5492 37.8667 12.3546 33.888 10.5323 28.3563L2.62347 34.3947C6.44543 42.1557 14.4269 47.4667 23.7137 47.4667C29.4455 47.4667 34.9178 45.4315 39.025 41.6181L31.5178 35.8144C29.3996 37.1488 26.7323 37.8667 23.7137 37.8667Z" fill="#34A853"/>
<path id="Fill 4" fill-rule="evenodd" clip-rule="evenodd" d="M46.1454 24C46.1454 22.6133 45.9318 21.12 45.6114 19.7333H23.7136V28.8H36.3182C35.6879 31.8912 33.9724 34.2677 31.5178 35.8144L39.0249 41.6181C43.3393 37.6139 46.1454 31.6491 46.1454 24Z" fill="#4285F4"/>
</g>
<defs>
<clipPath id="clip0_0_375">
<rect width="47" height="48" fill="white"/>
</clipPath>
</defs>
</svg>
